<svg width="32" height="32" viewBox="0 0 32 32" fill="none" xmlns="http://www.w3.org/2000/svg">
<path d="M9.60357 9.60363C4.86646 10.6911 1.33331 14.933 1.33331 20C1.33331 25.8911 6.10894 30.6667 12 30.6667C17.0671 30.6667 21.3089 27.1336 22.3964 22.3964C22.5732 21.6261 22.6666 20.824 22.6666 20C22.6666 14.109 17.891 9.33337 12 9.33337C11.176 9.33337 10.3739 9.4268 9.60357 9.60363Z" fill="white"/>
<path d="M10.7258 6.7268C11.1452 6.68704 11.5702 6.66671 12 6.66671C19.3638 6.66671 25.3333 12.6362 25.3333 20C25.3333 20.4298 25.313 20.8548 25.2732 21.2742C28.4946 19.4386 30.6666 15.973 30.6666 12C30.6666 6.109 25.891 1.33337 20 1.33337C16.0271 1.33337 12.5614 3.50542 10.7258 6.7268Z" fill="white"/>
</svg>
