<svg width="24" height="30" viewBox="0 0 24 30" fill="none" xmlns="http://www.w3.org/2000/svg">
<path d="M2.66667 1.66671C2.66667 0.930328 2.06971 0.333374 1.33333 0.333374C0.596954 0.333374 0 0.930328 0 1.66671V19.0003C0 19.0002 0 19.0003 0 19.0003V28.3334C0 29.0698 0.596955 29.6667 1.33333 29.6667C2.06971 29.6667 2.66667 29.0698 2.66667 28.3334L2.66667 19.7174C2.75921 19.6716 2.8683 19.6221 2.99519 19.5713C3.65402 19.3078 4.81696 19 6.66667 19C8.37426 19 9.81402 19.5617 11.5048 20.238L11.5791 20.2677C13.2044 20.9181 15.0754 21.6667 17.3333 21.6667C19.4836 21.6667 20.9874 21.3078 21.9952 20.9047C22.4979 20.7036 22.8715 20.4938 23.1354 20.3178C23.2672 20.2299 23.3709 20.151 23.4492 20.0866C23.5041 20.0413 23.5576 19.9945 23.6081 19.9442L23.6095 19.9428C23.8702 19.6822 24.0003 19.3404 24 18.9987V4.33337C24 3.99214 23.8698 3.65091 23.6095 3.39056C23.0986 2.87967 22.2762 2.87005 21.7536 3.36172C21.743 3.37045 21.7114 3.39555 21.6562 3.43231C21.5452 3.50633 21.3354 3.62983 21.0048 3.76207C20.346 4.0256 19.183 4.33337 17.3333 4.33337C15.6257 4.33337 14.186 3.77172 12.4952 3.0954L12.4209 3.06569C10.7956 2.41535 8.9246 1.66671 6.66667 1.66671C4.94433 1.66671 3.6368 1.89696 2.66667 2.19578V1.66671Z" fill="white"/>
</svg>
