<svg width="32" height="32" viewBox="0 0 32 32" fill="none" xmlns="http://www.w3.org/2000/svg">
<g clip-path="url(#clip0_394_2551)">
<path fill-rule="evenodd" clip-rule="evenodd" d="M27.8905 5.7929L18.5651 0.661988C16.9558 -0.223115 15.0371 -0.220433 13.4318 0.668693L4.09179 5.84118C2.38912 6.78395 1.33179 8.58366 1.33179 10.5403V21.5357C1.33179 23.503 2.39979 25.3094 4.11845 26.2495L13.4465 31.3469C14.2438 31.7827 15.1185 32 15.9918 32C16.8705 32 17.7491 31.7801 18.5505 31.3389L27.8918 26.2012C29.6025 25.2585 30.6651 23.4561 30.6651 21.4941V10.4987C30.6651 8.53672 29.6025 6.73299 27.8905 5.7929ZM12.1082 11.5H10.5482V18.292L5.49624 11.5H4.05624V20.5H5.49624V13.708L10.5482 20.5H12.1082V11.5ZM14.7395 12.94H19.7795V11.5H13.2995V20.5H14.7395V16.42H18.2195V14.98H14.7395V12.94ZM27.9381 12.94V11.5H20.7381V12.94H23.6181V20.5H25.0581V12.94H27.9381Z" fill="white"/>
</g>
<defs>
<clipPath id="clip0_394_2551">
<rect width="32" height="32" fill="white"/>
</clipPath>
</defs>
</svg>
