<svg width="15" height="20" viewBox="0 0 15 20" fill="none" xmlns="http://www.w3.org/2000/svg">
<path fill-rule="evenodd" clip-rule="evenodd" d="M3.46794 0.833314H11.5322C11.9715 0.833299 12.3504 0.833287 12.6626 0.85879C12.992 0.885707 13.3197 0.945137 13.635 1.1058C14.1054 1.34548 14.4879 1.72793 14.7276 2.19834C14.8882 2.51366 14.9477 2.84134 14.9746 3.17079C15.0001 3.48293 15.0001 3.86189 15.0001 4.30118L15.0001 4.95668C15.0003 5.24552 15.0005 5.50031 14.949 5.75129C14.9037 5.97194 14.8288 6.18547 14.7264 6.38606C14.6098 6.61422 14.4505 6.81306 14.2698 7.03847L11.2306 10.8374C12.9858 12.8007 12.9208 15.8169 11.0355 17.7022C9.08292 19.6548 5.91709 19.6548 3.96446 17.7022C2.07918 15.8169 2.01417 12.8006 3.76943 10.8373L0.730276 7.03845C0.549658 6.81305 0.390334 6.61422 0.273772 6.38606C0.171291 6.18547 0.0963914 5.97194 0.0511053 5.75129C-0.000403207 5.50031 -0.000200053 5.24552 3.04179e-05 4.95668L6.07169e-05 4.3012C4.58158e-05 3.86191 3.29611e-05 3.48293 0.025536 3.17079C0.0524535 2.84134 0.111883 2.51366 0.272545 2.19834C0.512229 1.72793 0.89468 1.34548 1.36509 1.1058C1.6804 0.945137 2.00808 0.885707 2.33754 0.85879C2.64967 0.833287 3.02867 0.833299 3.46794 0.833314ZM7.50004 8.64267L11.4358 3.58245C11.7043 3.23718 11.8386 3.06455 11.8373 2.91961C11.8363 2.79352 11.7782 2.6747 11.6793 2.59645C11.5656 2.50649 11.3469 2.50649 10.9095 2.50649L4.09055 2.50649C3.65314 2.50649 3.43444 2.50649 3.32079 2.59645C3.22192 2.6747 3.16381 2.79352 3.16274 2.91961C3.1615 3.06455 3.29577 3.23718 3.56431 3.58245L7.50004 8.64267Z" fill="white"/>
</svg>
